<svg xmlns="http://www.w3.org/2000/svg" viewBox="0 0 512 512">
  <defs>
    <linearGradient id="duo" x1="0" y1="0" x2="1" y2="1">
      <stop offset="0" stop-color="#3E63DD"/>
      <stop offset="0.52" stop-color="#A15ACB"/>
      <stop offset="1" stop-color="#E54666"/>
    </linearGradient>
  </defs>
  <rect width="512" height="512" rx="112" fill="url(#duo)"/>
  <rect x="96" y="128" width="320" height="288" rx="40" fill="#fff" opacity="0.96"/>
  <rect x="96" y="128" width="320" height="72" rx="40" fill="#26233A" opacity="0.9"/>
  <rect x="96" y="168" width="320" height="32" fill="#26233A" opacity="0.9"/>
  <rect x="150" y="88" width="28" height="72" rx="14" fill="#fff"/>
  <rect x="334" y="88" width="28" height="72" rx="14" fill="#fff"/>
  <path d="M256 366c-6-4-62-40-62-79 0-22 17-39 38-39 10 0 19 4 24 12 5-8 14-12 24-12 21 0 38 17 38 39 0 39-56 75-62 79z" fill="url(#duo)"/>
</svg>
